<svg id="Layer_1" data-name="Layer 1" xmlns="http://www.w3.org/2000/svg" viewBox="0 0 122.14 121.36"><path d="M75.89,1.32l.71.24a4.22,4.22,0,0,1,2.78,4.66,4.14,4.14,0,0,1-3.9,3.57H14.92A5.35,5.35,0,0,0,9.42,14a7,7,0,0,0-.17,1.58q0,46.47,0,92.94a5.39,5.39,0,0,0,5.51,5.71c2,0,4,0,6,0h87.61a5.53,5.53,0,0,0,4.6-2,5.19,5.19,0,0,0,1.22-3.21c0-.34,0-.68,0-1q0-28,0-56.07a4.63,4.63,0,0,1,1.26-3.49,3.85,3.85,0,0,1,4.26-1,4,4,0,0,1,2.71,3.58,7.56,7.56,0,0,1,0,.83q0,28.58,0,57.15c0,6.06-3.41,11-8.81,12.9a29.27,29.27,0,0,1-3.21.74H13a2.75,2.75,0,0,0-.41-.11,13,13,0,0,1-11.06-9.63c-.2-.75-.33-1.53-.49-2.29V13.35a4.21,4.21,0,0,0,.12-.48,13.19,13.19,0,0,1,9.3-11c.79-.22,1.61-.35,2.42-.52Z" transform="translate(-1 -1.32)"/><path d="M105.86,4.05a11.31,11.31,0,0,1,7.87,3.34c2.09,2.07,4.19,4.15,6.15,6.35a11.37,11.37,0,0,1,2.63,11.7,9.25,9.25,0,0,1-2.33,3.66Q95.25,54.71,70.31,80.32q-4.52,4.64-9,9.28a3.66,3.66,0,0,1-1.87,1.12c-2.64.65-5.24,1.44-7.86,2.17-4.62,1.3-9.24,2.61-13.86,3.89a3.75,3.75,0,0,1-4.94-2.69,4.27,4.27,0,0,1,0-2q3-11.49,6.07-22.94a3,3,0,0,1,.8-1.25Q67.22,39.5,94.85,11.13C96.23,9.71,97.6,8.28,99,6.88A9.45,9.45,0,0,1,105.86,4.05Zm-13,21.18-43,44.19,9.52,9.82,43-44.13Zm6-6.31,9.64,10,5.69-5.85a2.7,2.7,0,0,0,.15-3.89c-2-2.11-4-4.16-6-6.2a2.67,2.67,0,0,0-3.86.12c-.79.93-1.69,1.77-2.54,2.64ZM41.83,87.49,53,84.35,44.89,76Z" transform="translate(-1 -1.32)"/></svg>