<svg id="Layer_1" data-name="Layer 1" xmlns="http://www.w3.org/2000/svg" viewBox="0 0 122.75 122.93"><path d="M55.72,123.46q-17.47,0-34.94,0C9,123.45.63,115.07.63,103.28q0-35,0-70A19.41,19.41,0,0,1,17.19,13.62a15.14,15.14,0,0,1,2.61-.19q29.83,0,59.66,0a5.2,5.2,0,0,1,5.3,4.12,5.05,5.05,0,0,1-3.13,5.66,8.54,8.54,0,0,1-2.85.44q-29.1,0-58.19,0c-4.58,0-8.1,2.47-9.28,6.56a11.7,11.7,0,0,0-.42,3.17q0,35,0,70c0,5.92,3.88,9.79,9.8,9.79H90.56c6.13,0,10-3.8,10-9.92q0-29.69,0-59.36a5.62,5.62,0,0,1,1.88-4.69,5.06,5.06,0,0,1,8.16,2.61,7.86,7.86,0,0,1,.21,1.88c0,20.07,0,40.15,0,60.23a19.3,19.3,0,0,1-15,19,22.57,22.57,0,0,1-5.06.5C79,123.48,67.37,123.46,55.72,123.46Z" transform="translate(-0.62 -0.54)"/><path d="M105.26,10.79c-5.73,0-11.08,0-16.44,0a8.94,8.94,0,0,1-2.31-.25A5.12,5.12,0,0,1,82.8,5.08,5.06,5.06,0,0,1,87.6.57c11.69,0,23.38,0,35.08,0a3.71,3.71,0,0,1,.62.11c0,.42.07.79.07,1.17,0,10.87,0,21.73,0,32.59,0,3.75-3.1,6.28-6.46,5.36a5.11,5.11,0,0,1-3.76-5.13c0-5.26,0-10.52,0-15.78V17.48c-.63.58-1,.94-1.42,1.33Q88.51,42,65.31,65.22C63.72,66.8,62,67.74,59.67,67a5.09,5.09,0,0,1-2.33-8.19c.35-.4.75-.77,1.12-1.15l45.48-45.47C104.31,11.81,104.65,11.42,105.26,10.79Z" transform="translate(-0.62 -0.54)"/><path d="M64.56,75.92l-4,4.68A6.72,6.72,0,0,0,54,79.24a2.68,2.68,0,0,0-2.19,2.43,2.43,2.43,0,0,0,1.81,2.53c1.31.53,2.65,1,4,1.42.74.26,1.5.44,2.22.74,3.18,1.3,5,3.55,5,7.14s-1.49,6.61-4.87,8.15c-4.48,2-11.14,1.75-15.42-2.43l4-4.41a29.33,29.33,0,0,0,4.89,2.08,6,6,0,0,0,3.52-.48,2.62,2.62,0,0,0,.25-4.77,18.35,18.35,0,0,0-3.36-1.37c-1-.34-2-.54-2.92-.93-2.7-1.12-5.1-2.57-5.42-5.88a8.69,8.69,0,0,1,3.78-8.63C53.43,71.92,60.64,72.42,64.56,75.92Z" transform="translate(-0.62 -0.54)"/><path d="M66.75,73.75c2.23,0,4.18-.08,6.11,0A2,2,0,0,1,74.18,75c2,5.26,4,10.55,5.95,15.84.16.44.36.86.67,1.58.62-1.62,1.15-3,1.65-4.29,1.67-4.36,3.35-8.71,5-13.09.34-.91.74-1.32,1.77-1.27,1.69.1,3.4,0,5.32,0-.21.56-.37,1-.54,1.42-3.52,8.54-7.06,17.08-10.53,25.63a1.7,1.7,0,0,1-1.91,1.26c-3.59,0-3.58,0-4.89-3.3Q72,87.17,67.43,75.58C67.22,75.05,67,74.51,66.75,73.75Z" transform="translate(-0.62 -0.54)"/><path d="M38.24,94.18l4.94,3.73c-2.56,4.19-8.73,6.09-14.67,4.57a13.77,13.77,0,0,1-10.65-13c-.35-7.27,2.92-12.58,9.16-14.87,5.92-2.17,12.29-.92,15.38,3.12L37.72,81c-4.21-4.26-12.22-2-13.25,5.08-.72,5,1.55,9.5,5.55,10.69C33.05,97.72,35.48,97,38.24,94.18Z" transform="translate(-0.62 -0.54)"/></svg>